<svg xmlns="http://www.w3.org/2000/svg" viewBox="0 0 1024 1024"><path d="M512 64C264.6 64 64 264.6 64 512s200.6 448 448 448 448-200.6 448-448S759.4 64 512 64zm0 820c-205.4 0-372-166.6-372-372S306.6 140 512 140s372 166.6 372 372-166.6 372-372 372z" fill="#BFBFBF"/><path d="M635.6 388.4L423.2 456.8c-8.4 2.7-15.1 9.4-17.8 17.8l-68.4 212.4c-5.6 17.4 12.2 33.2 28.6 25.4l212.4-68.4c8.4-2.7 15.1-9.4 17.8-17.8l68.4-212.4c5.6-17.4-12.2-33.2-28.6-25.4zM512 576c-35.3 0-64-28.7-64-64s28.7-64 64-64 64 28.7 64 64-28.7 64-64 64z" fill="#BFBFBF"/></svg>
