<svg xmlns="http://www.w3.org/2000/svg" viewBox="0 0 1024 1024"><path d="M512 64C264.6 64 64 264.6 64 512s200.6 448 448 448 448-200.6 448-448S759.4 64 512 64zm0 820c-205.4 0-372-166.6-372-372S306.6 140 512 140s372 166.6 372 372-166.6 372-372 372z" fill="#A0724A"/><path d="M512 368c-79.5 0-144 64.5-144 144s64.5 144 144 144 144-64.5 144-144-64.5-144-144-144zm0 216c-39.7 0-72-32.3-72-72s32.3-72 72-72 72 32.3 72 72-32.3 72-72 72z" fill="#A0724A"/><path d="M488 140h48v228h-48zM488 656h48v228h-48zM140 488h228v48H140zM656 488h228v48H656z" fill="#A0724A"/><path d="M237.5 215.6l33.9-33.9L385 295.3l-33.9 33.9zM639 661.3l33.9-33.9L786.5 741l-33.9 33.9zM741 237.5l33.9 33.9L661.3 385l-33.9-33.9zM295.3 639l33.9 33.9L215.6 786.5l-33.9-33.9z" fill="#A0724A"/></svg>
