<svg viewBox="0 0 1024 1024" xmlns="http://www.w3.org/2000/svg"><path fill="black" d="M864 256H672c0-88-72-160-160-160s-160 72-160 160H160c-36 0-64 28-64 64v544c0 36 28 64 64 64h704c36 0 64-28 64-64V320c0-36-28-64-64-64zM512 160c36 0 64 28 64 64H448c0-36 28-64 64-64zm-96 480c0 18-14 32-32 32s-32-14-32-32V480c0-18 14-32 32-32s32 14 32 32v160zm160 0c0 18-14 32-32 32s-32-14-32-32V480c0-18 14-32 32-32s32 14 32 32v160zm160 0c0 18-14 32-32 32s-32-14-32-32V480c0-18 14-32 32-32s32 14 32 32v160z"/></svg>
