<svg viewBox="0 0 1024 1024" xmlns="http://www.w3.org/2000/svg"><path d="M882 272l-55.2-166.2c-3.4-10.2-12.8-17.1-23.6-17.1H220.8c-10.8 0-20.2 6.9-23.6 17.1L142 272c-1.2 3.6-1.8 7.4-1.8 11.2 0 53 43 96 96 96s96-43 96-96c0 53 43 96 96 96s96-43 96-96c0 53 43 96 96 96s96-43 96-96c0 53 43 96 96 96s96-43 96-96c0-3.8-0.6-7.6-1.8-11.2z" fill="black"/><path d="M832 416c-30.6 0-59.2-9.2-83.2-24.8-24 15.6-52.6 24.8-83.2 24.8-30.6 0-59.2-9.2-83.2-24.8-24 15.6-52.6 24.8-83.2 24.8-30.6 0-59.2-9.2-83.2-24.8-24 15.6-52.6 24.8-83.2 24.8-30.6 0-59.2-9.2-83.2-24.8C225.2 406.8 196.6 416 166 416v64c30.6 0 59.2-5.4 86-15.2V896h520V464.8c26.8 9.8 55.4 15.2 86 15.2v-64zM608 832H416V640h192v192z" fill="black"/></svg>
