<svg viewBox="0 0 1024 1024" xmlns="http://www.w3.org/2000/svg"><path fill="black" d="M832 128H640c0-36-28-64-64-64H448c-36 0-64 28-64 64H192c-36 0-64 28-64 64v704c0 36 28 64 64 64h640c36 0 64-28 64-64V192c0-36-28-64-64-64zM512 128c18 0 32 14 32 32s-14 32-32 32-32-14-32-32 14-32 32-32zm192 640H320c-18 0-32-14-32-32s14-32 32-32h384c18 0 32 14 32 32s-14 32-32 32zm0-160H320c-18 0-32-14-32-32s14-32 32-32h384c18 0 32 14 32 32s-14 32-32 32zm0-160H320c-18 0-32-14-32-32s14-32 32-32h384c18 0 32 14 32 32s-14 32-32 32z"/></svg>
