<svg xmlns="http://www.w3.org/2000/svg" viewBox="0 0 24 24" width="24" height="24">
  <!-- 多色铃铛 -->
  <!-- 铃铛主体 - 金棕色 -->
  <path d="M12 2C10.9 2 10 2.9 10 4V4.29C7.12 5.15 5 7.83 5 11V17L3 19V20H21V19L19 17V11C19 7.83 16.88 5.15 14 4.29V4C14 2.9 13.1 2 12 2Z" fill="#C5A572"/>
  <!-- 铃铛底部 - 深棕色 -->
  <path d="M12 23C13.1 23 14 22.1 14 21H10C10 22.1 10.9 23 12 23Z" fill="#8B7355"/>
  <!-- 铃铛顶部小圆点 - 红色（通知提示感） -->
  <circle cx="17" cy="5" r="3" fill="#D4463A"/>
  <!-- 红点内数字感的白色高光 -->
  <circle cx="17" cy="5" r="1.5" fill="#FF6B5A"/>
</svg>
