<svg xmlns="http://www.w3.org/2000/svg" xmlns:xlink="http://www.w3.org/1999/xlink" width="0" height="0" style="display:none;"><symbol viewBox="0 0 1024 1024" id="tiangong-icons-icon-bell"><path d="M208 672V448c0-168 136-304 304-304s304 136 304 304v224l80 128H128l80-128z"></path><path d="M416 832c0 53 43 96 96 96s96-43 96-96"></path></symbol><symbol viewBox="0 0 1024 1024" id="tiangong-icons-icon-box"><path d="M512 96L128 288v448l384 192 384-192V288L512 96z"></path><path d="M128 288l384 192 384-192"></path><line x1="512" y1="480" x2="512" y2="928"></line></symbol><symbol viewBox="0 0 1024 1024" id="tiangong-icons-icon-camera"><path d="M160 288h128l80-128h288l80 128h128c36 0 64 28 64 64v480c0 36-28 64-64 64H160c-36 0-64-28-64-64V352c0-36 28-64 64-64z"></path><circle cx="512" cy="544" r="176"></circle></symbol><symbol viewBox="0 0 1024 1024" id="tiangong-icons-icon-chart"><rect x="128" y="128" width="768" height="768" rx="48"></rect><line x1="320" y1="704" x2="320" y2="544"></line><line x1="512" y1="704" x2="512" y2="320"></line><line x1="704" y1="704" x2="704" y2="448"></line></symbol><symbol viewBox="0 0 1024 1024" id="tiangong-icons-icon-chat"><path d="M512 128C288 128 128 288 128 480c0 96 48 184 128 248l-48 192 192-96c36 12 72 16 112 16 224 0 384-160 384-352S736 128 512 128z"></path></symbol><symbol viewBox="0 0 1024 1024" id="tiangong-icons-icon-clipboard"><rect x="192" y="192" width="640" height="736" rx="48"></rect><rect x="352" y="96" width="320" height="160" rx="32"></rect><line x1="352" y1="480" x2="672" y2="480"></line><line x1="352" y1="640" x2="672" y2="640"></line></symbol><symbol viewBox="0 0 1024 1024" id="tiangong-icons-icon-coin"><ellipse cx="512" cy="400" rx="384" ry="208"></ellipse><path d="M128 400v224c0 115 172 208 384 208s384-93 384-208V400"></path><path d="M128 512c0 115 172 208 384 208s384-93 384-208"></path></symbol><symbol viewBox="0 0 1024 1024" id="tiangong-icons-icon-compass"><circle cx="512" cy="512" r="384"></circle><polygon points="400,624 448,448 624,400 576,576" fill="black" stroke="black" stroke-width="32"></polygon></symbol><symbol viewBox="0 0 1024 1024" id="tiangong-icons-icon-edit"><path d="M576 224l224 224-448 448H128V672L576 224z"></path><path d="M640 160l224 224"></path><line x1="128" y1="896" x2="896" y2="896"></line></symbol><symbol viewBox="0 0 1024 1024" id="tiangong-icons-icon-headset"><path d="M192 576V448c0-176 144-320 320-320s320 144 320 320v128"></path><rect x="128" y="544" width="128" height="256" rx="48"></rect><rect x="768" y="544" width="128" height="256" rx="48"></rect><path d="M832 800v48c0 80-64 144-144 144H512"></path></symbol><symbol viewBox="0 0 1024 1024" id="tiangong-icons-icon-lock"><rect x="192" y="448" width="640" height="448" rx="64"></rect><path d="M288 448V352c0-124 100-224 224-224s224 100 224 224v96"></path><circle cx="512" cy="640" r="48" fill="black"></circle><line x1="512" y1="688" x2="512" y2="768"></line></symbol><symbol viewBox="0 0 1024 1024" id="tiangong-icons-icon-logout"><path d="M640 160H256c-36 0-64 28-64 64v576c0 36 28 64 64 64h384"></path><polyline points="704,384 896,512 704,640"></polyline><line x1="416" y1="512" x2="896" y2="512"></line></symbol><symbol viewBox="0 0 1024 1024" id="tiangong-icons-icon-megaphone"><path d="M832 192v640c-128-80-256-128-384-144V336c128-16 256-64 384-144z"></path><rect x="192" y="336" width="128" height="352" rx="32"></rect><path d="M320 688l48 208h96l-48-208"></path><path d="M832 416c48 24 80 64 80 96s-32 72-80 96"></path></symbol><symbol viewBox="0 0 1024 1024" id="tiangong-icons-icon-receipt"><path d="M224 96h576c36 0 64 28 64 64v768l-96-64-96 64-96-64-96 64-96-64-96 64-96-64-96 64V160c0-36 28-64 64-64z"></path><line x1="352" y1="384" x2="672" y2="384"></line><line x1="352" y1="544" x2="672" y2="544"></line></symbol><symbol viewBox="0 0 1024 1024" id="tiangong-icons-icon-shopping-bag"><path d="M256 320l-64 576c0 36 28 64 64 64h512c36 0 64-28 64-64l-64-576H256z"></path><path d="M384 320V256c0-70 58-128 128-128s128 58 128 128v64"></path></symbol><symbol viewBox="0 0 1024 1024" id="tiangong-icons-icon-store"><path d="M192 448v384h640V448"></path><path d="M128 448l64-256h640l64 256"></path><path d="M128 448c0 64 48 112 112 112s112-48 112-112"></path><path d="M352 448c0 64 48 112 112 112s112-48 112-112"></path><path d="M576 448c0 64 48 112 112 112s112-48 112-112"></path><path d="M800 448c0 64 48 112 112 112"></path><path d="M128 448c0 64-48 112-16 112"></path><rect x="384" y="608" width="256" height="224"></rect></symbol><symbol viewBox="0 0 1024 1024" id="tiangong-icons-icon-tag"><path d="M476 128l384 60 60 384-392 392c-24 24-64 24-88 0L128 652c-24-24-24-64 0-88L476 128z"></path><circle cx="672" cy="352" r="48" fill="black"></circle></symbol><symbol viewBox="0 0 1024 1024" id="tiangong-icons-icon-user"><circle cx="512" cy="352" r="192"></circle><path d="M192 896c0-176 144-320 320-320s320 144 320 320"></path></symbol><symbol viewBox="0 0 1024 1024" id="tiangong-icons-icon-wheel"><circle cx="512" cy="512" r="384"></circle><circle cx="512" cy="512" r="128"></circle><line x1="512" y1="128" x2="512" y2="384"></line><line x1="512" y1="640" x2="512" y2="896"></line><line x1="128" y1="512" x2="384" y2="512"></line><line x1="640" y1="512" x2="896" y2="512"></line><line x1="240" y1="240" x2="420" y2="420"></line><line x1="604" y1="604" x2="784" y2="784"></line><line x1="784" y1="240" x2="604" y2="420"></line><line x1="420" y1="604" x2="240" y2="784"></line></symbol></svg>